<?xml version="1.0" encoding="UTF-8" standalone="no"?> <svg width="64" height="64" viewBox="0 0 64 64" fill="none" xmlns="http://www.w3.org/2000/svg">
<path d="M60 32.68C57.24 32.4 56.62 28.58 53 29.38L50.74 26.1C50.74 26.04 48.12 23.82 48.04 23.74C47.97 23.02 49.46 17.48 48.56 17.06C48.37 16.97 44.24 13.32 44.1 13.5L39.63 12.5L37.3 9.74996L35.16 3.66996C35.0999 3.50128 34.9956 3.35183 34.858 3.23723C34.7204 3.12262 34.5546 3.04707 34.3778 3.01846C34.201 2.98985 34.0198 3.00923 33.8531 3.07458C33.6864 3.13993 33.5402 3.24885 33.43 3.38996L29.11 8.91996C28.47 9.20996 23.63 9.53996 23.49 10.47L20.59 17.53L18.11 18.21C17.17 18.21 16.39 22.55 16.03 23.14C15.33 23.24 13.61 22.8 13.29 23.74L10.74 29.51C10.36 30.13 11.48 31.65 11.65 32.22C8.27 34.22 7.65 29.05 4 29.32C3.73478 29.32 3.48043 29.4253 3.29289 29.6129C3.10536 29.8004 3 30.0547 3 30.32C3 30.5852 3.10536 30.8395 3.29289 31.0271C3.48043 31.2146 3.73478 31.32 4 31.32C4.4745 31.3428 4.9368 31.478 5.34883 31.7145C5.76086 31.9509 6.11085 32.2818 6.37 32.68C7.29 34.22 10.62 35.47 12.49 34.06L15.4 40.84L16.32 44.78C16.2 45.46 21.44 47.84 21.83 48.21L22.21 52.56C22.29 53.9 24.21 53.35 25.04 53.38L27.22 60.3C27.2903 60.5451 27.4517 60.7541 27.671 60.8842C27.8904 61.0144 28.1511 61.0558 28.4 61C29.8915 60.6981 31.3667 60.321 32.82 59.87L39.67 54.5C39.99 54.37 41.05 51.5 41.24 51.18C41.43 50.86 43.82 48.81 43.67 48.18V45.88C44.9937 43.1421 46.5812 40.5398 48.41 38.11C50.5221 36.4645 52.5046 34.6592 54.34 32.71C54.5053 32.5404 54.6051 32.3177 54.6216 32.0815C54.638 31.8452 54.5702 31.6108 54.43 31.42C56.55 32.23 56.94 34.75 60 34.69C60.132 34.69 60.2627 34.664 60.3846 34.6135C60.5065 34.563 60.6173 34.4889 60.7106 34.3956C60.804 34.3023 60.878 34.1915 60.9285 34.0696C60.979 33.9476 61.005 33.8169 61.005 33.685C61.005 33.553 60.979 33.4223 60.9285 33.3004C60.878 33.1784 60.804 33.0676 60.7106 32.9743C60.6173 32.881 60.5065 32.807 60.3846 32.7565C60.2627 32.706 60.132 32.68 60 32.68ZM14.86 25.14C15.6 25.04 17.46 25.51 17.71 24.45L19.16 20C19.74 19.72 22.05 19.53 22.25 18.75L25.13 11.75L29.86 10.84C30.34 11.01 33.55 6.34996 33.86 6.07996C33.92 6.18996 35.53 11.01 35.63 10.91L38.3 14.08C38.42 14.53 43.02 15.25 43.41 15.42L46.82 18.26C46.9 18.97 45.42 24.51 46.3 24.92L49.15 27.36L51.15 30.2C45.69 36.2 46.62 29.76 41.33 29.34C37.46 29.2 36.16 35.48 32.73 31.34C32.2841 30.742 31.7048 30.2564 31.0381 29.9219C30.3715 29.5874 29.6359 29.4133 28.89 29.4133C28.1441 29.4133 27.4085 29.5874 26.7419 29.9219C26.0752 30.2564 25.4959 30.742 25.05 31.34C24.31 32.13 23.79 32.7 22.67 32.7C22.1938 32.6787 21.7295 32.5442 21.3156 32.3077C20.9017 32.0712 20.5501 31.7394 20.29 31.34C19.06 29.24 14.83 28.56 13.17 30.76L12.77 29.92L14.86 25.14ZM50.16 34.14L47 36.64C46.9267 36.6963 46.8626 36.7638 46.81 36.84C46.71 37 43.98 40.84 43.89 41L41.75 45.17C41.6186 46.0333 41.5784 46.9082 41.63 47.78C41.52 47.93 39.4 50.06 39.43 50.19L38.19 53.05L31.72 58.13L28.81 58.81L26.71 52C26.45 50.94 24.86 51.41 24.12 51.38C23.91 50.71 24.12 46.97 23.27 46.68L18.17 43.85L17.33 40.25C17.3343 40.1967 17.3343 40.1432 17.33 40.09L14.12 32.64C17.56 28.5 18.82 34.78 22.71 34.64C26.09 34.76 26.2 31.5 28.93 31.28C31.66 31.5 31.77 34.77 35.15 34.64C38.53 34.77 38.64 31.5 41.37 31.28C41.8462 31.3013 42.3105 31.4357 42.7244 31.6722C43.1383 31.9087 43.4899 32.2405 43.75 32.64C46.34 35.99 50.09 34.64 52.34 31.79V31.85L50.16 34.14Z" fill="url(#paint0_linear_522_14941)"/>
<path d="M23.25 23.49C24.77 24.36 25.78 19.76 26.36 19.05C30.53 17.14 29.36 19.58 32.03 14.6L33.17 16.88C33.52 17.98 37.17 17.1 37.92 17.25C38.0513 17.2441 38.1802 17.2124 38.2992 17.1567C38.4183 17.101 38.5252 17.0224 38.6139 16.9253C38.7026 16.8283 38.7713 16.7147 38.8161 16.5911C38.8609 16.4676 38.8809 16.3364 38.875 16.205C38.8691 16.0737 38.8373 15.9448 38.7816 15.8258C38.7259 15.7067 38.6473 15.5998 38.5503 15.5111C38.4532 15.4224 38.3397 15.3537 38.2161 15.3089C38.0925 15.2641 37.9613 15.2441 37.83 15.25L34.67 15.41C31.46 8.02003 31.39 12.11 28.98 16.05C27.92 16.55 25.49 16.83 24.71 17.84L22.76 22.17C22.6511 22.4102 22.6415 22.6837 22.7333 22.9309C22.8251 23.1781 23.0108 23.3791 23.25 23.49V23.49Z" fill="url(#paint1_linear_522_14941)"/>
<defs>
<linearGradient id="paint0_linear_522_14941" x1="3.03" y1="32" x2="60.97" y2="32" gradientUnits="userSpaceOnUse">
<stop stop-color="#0170FE"/>
<stop offset="0.38" stop-color="#035ED4"/>
<stop offset="0.79" stop-color="#044DAD"/>
<stop offset="1" stop-color="#05479E"/>
</linearGradient>
<linearGradient id="paint1_linear_522_14941" x1="390.043" y1="225.794" x2="652.243" y2="225.794" gradientUnits="userSpaceOnUse">
<stop stop-color="#0170FE"/>
<stop offset="0.38" stop-color="#035ED4"/>
<stop offset="0.79" stop-color="#044DAD"/>
<stop offset="1" stop-color="#05479E"/>
</linearGradient>
</defs>
</svg>
