<?xml version="1.0" encoding="UTF-8" standalone="no"?> <svg width="64" height="64" viewBox="0 0 64 64" fill="none" xmlns="http://www.w3.org/2000/svg">
<path d="M40 24H24C23.9998 36.8466 19.0973 49.2089 10.293 58.564L8 61H56L53.707 58.564C44.9027 49.2089 40.0002 36.8466 40 24V24Z" fill="#FCBC04"/>
<path d="M50.774 55.145L34.667 55.593C33.0386 55.6384 31.4237 55.2852 29.9628 54.5643C28.502 53.8433 27.2394 52.7764 26.2848 51.4563C25.3303 50.1361 24.7127 48.6028 24.4858 46.9896C24.259 45.3764 24.4296 43.7322 24.983 42.2L26 39.385V42.938C26.0038 43.4715 26.2142 43.9827 26.5869 44.3645C26.9596 44.7462 27.4657 44.9687 27.9989 44.9852C28.5321 45.0018 29.0511 44.8111 29.4467 44.4533C29.8424 44.0954 30.0841 43.5982 30.121 43.066L30.679 34.132C30.6933 33.9002 30.7878 33.6807 30.9463 33.511C31.1048 33.3413 31.3175 33.232 31.5477 33.202C31.778 33.1719 32.0115 33.223 32.2083 33.3463C32.405 33.4697 32.5527 33.6577 32.626 33.878L33.476 36.429C33.6078 36.8368 33.8925 37.1776 34.2703 37.3799C34.6482 37.5821 35.0897 37.63 35.5021 37.5134C35.9145 37.3969 36.2657 37.125 36.4818 36.755C36.6979 36.3849 36.7621 35.9454 36.661 35.529L35.861 32.069C35.8096 31.847 35.8355 31.614 35.9346 31.4088C36.0337 31.2035 36.1999 31.0382 36.4057 30.9403C36.6115 30.8424 36.8446 30.8178 37.0664 30.8705C37.2881 30.9231 37.4852 31.05 37.625 31.23L38.577 32.455C38.7077 32.6245 38.8756 32.7618 39.0677 32.8563C39.2598 32.9507 39.4709 32.9999 39.685 33C39.8854 33.0001 40.0834 32.9564 40.2651 32.872C40.4469 32.7875 40.6079 32.6643 40.737 32.511C40.575 31.5637 40.4397 30.6113 40.331 29.654C39.5876 27.9045 39.1412 26.0433 39.01 24.147L39 24H24C23.9998 36.8466 19.0973 49.2089 10.293 58.564L8 61H56L53.707 58.564C52.674 57.466 51.7 56.322 50.774 55.145Z" fill="#E59730"/>
<path d="M37 23H27C26.9997 19.0542 26.0812 15.1625 24.317 11.633L23 9H41L39.683 11.633C37.9188 15.1625 37.0003 19.0542 37 23Z" fill="#CC5144"/>
<path d="M3 59.333L5 58C5.88844 57.4078 6.93228 57.0918 8 57.0918C9.06772 57.0918 10.1116 57.4078 11 58C11.8884 58.5922 12.9323 58.9082 14 58.9082C15.0677 58.9082 16.1116 58.5922 17 58C17.8884 57.4078 18.9323 57.0918 20 57.0918C21.0677 57.0918 22.1116 57.4078 23 58C23.8884 58.5922 24.9323 58.9082 26 58.9082C27.0677 58.9082 28.1116 58.5922 29 58C29.8884 57.4078 30.9323 57.0918 32 57.0918C33.0677 57.0918 34.1116 57.4078 35 58C35.8884 58.5922 36.9323 58.9082 38 58.9082C39.0677 58.9082 40.1116 58.5922 41 58C41.8884 57.4078 42.9323 57.0918 44 57.0918C45.0677 57.0918 46.1116 57.4078 47 58C47.8884 58.5922 48.9323 58.9082 50 58.9082C51.0677 58.9082 52.1116 58.5922 53 58C53.8884 57.4078 54.9323 57.0918 56 57.0918C57.0677 57.0918 58.1116 57.4078 59 58L61 59.333V61H3V59.333Z" fill="#84D2F4"/>
<path d="M41.926 29.949C40.821 27.8404 40.1684 25.5243 40.01 23.149L40 23H24C23.8385 26.2905 23.1428 29.5329 21.94 32.6L21.606 33.451C21.528 33.6501 21.4914 33.8629 21.4983 34.0766C21.5051 34.2903 21.5554 34.5004 21.6461 34.694C21.7367 34.8877 21.8658 35.0609 22.0255 35.203C22.1852 35.3452 22.3722 35.4534 22.575 35.521V35.521C22.9591 35.649 23.3777 35.6242 23.7439 35.4518C24.1102 35.2794 24.396 34.9726 24.542 34.595L25.067 33.238C25.1511 33.02 25.3089 32.8383 25.5129 32.7245C25.717 32.6107 25.9545 32.572 26.1841 32.615C26.4138 32.658 26.6211 32.78 26.7702 32.96C26.9192 33.1399 27.0005 33.3664 27 33.6V41.935C26.9996 42.206 27.0527 42.4745 27.1561 42.725C27.2596 42.9755 27.4114 43.2032 27.6029 43.395C27.7944 43.5868 28.0219 43.7389 28.2722 43.8428C28.5226 43.9466 28.791 44 29.062 44V44C29.5868 44 30.0919 43.8 30.4745 43.4407C30.857 43.0814 31.0882 42.5898 31.121 42.066L31.679 33.132C31.6933 32.9002 31.7878 32.6807 31.9464 32.511C32.1049 32.3413 32.3175 32.232 32.5478 32.202C32.778 32.1719 33.0116 32.223 33.2083 32.3463C33.4051 32.4697 33.5527 32.6577 33.626 32.878L34.476 35.429C34.5447 35.6354 34.6534 35.8262 34.7959 35.9906C34.9384 36.1549 35.1119 36.2896 35.3065 36.3868C35.5011 36.484 35.7129 36.542 35.9299 36.5573C36.1469 36.5726 36.3647 36.545 36.571 36.476V36.476C36.9618 36.3457 37.2901 36.0745 37.4916 35.7152C37.6932 35.3559 37.7536 34.9344 37.661 34.533L36.861 31.073C36.8096 30.851 36.8356 30.618 36.9346 30.4128C37.0337 30.2075 37.1999 30.0422 37.4057 29.9443C37.6116 29.8464 37.8446 29.8218 38.0664 29.8745C38.2881 29.9271 38.4852 30.054 38.625 30.234L39.577 31.459C39.7082 31.6278 39.8762 31.7643 40.0683 31.858C40.2603 31.9518 40.4713 32.0004 40.685 32C40.9262 32.0003 41.1633 31.9382 41.3734 31.8199C41.5836 31.7016 41.7596 31.5311 41.8844 31.3248C42.0092 31.1184 42.0787 30.8834 42.086 30.6423C42.0933 30.4013 42.0382 30.1625 41.926 29.949Z" fill="#F89C8D"/>
<path d="M35.813 20C34.5002 19.9978 33.2245 19.5643 32.1822 18.7663C31.1398 17.9682 30.3886 16.8498 30.044 15.583C30.6602 15.8557 31.3262 15.9977 32 16C32.8064 15.9992 33.6006 15.803 34.3147 15.4282C35.0287 15.0535 35.6413 14.5112 36.1 13.848C36.5852 14.0131 37.1058 14.0445 37.6073 13.9389C38.1088 13.8333 38.5726 13.5947 38.95 13.248C39.176 12.703 39.416 12.163 39.68 11.633L41 9H23L24.317 11.633C26.0812 15.1625 26.9997 19.0542 27 23H37C37.0005 21.9973 37.0602 20.9956 37.179 20H35.813Z" fill="#AD4038"/>
<path d="M48 6.00002C47.4838 6.00026 46.9879 6.20105 46.617 6.56002C46.3834 6.12732 46.0461 5.75937 45.6353 5.48915C45.2244 5.21894 44.753 5.05492 44.2631 5.01181C43.7733 4.96869 43.2804 5.04783 42.8287 5.24212C42.377 5.43641 41.9806 5.73978 41.675 6.12502C41.3262 5.99396 40.9471 5.96527 40.5826 6.04233C40.218 6.1194 39.883 6.299 39.617 6.56002C39.294 5.9454 38.7625 5.46603 38.1179 5.20797C37.4734 4.94992 36.7579 4.93008 36.1 5.15202C35.6519 4.50171 35.0552 3.96752 34.3596 3.59367C33.6639 3.21983 32.8892 3.01708 32.0995 3.00222C31.3099 2.98737 30.5281 3.16083 29.8188 3.50824C29.1096 3.85566 28.4933 4.36703 28.021 5.00002H28C27.5529 5.00125 27.1118 5.103 26.7094 5.29773C26.3069 5.49247 25.9534 5.7752 25.675 6.12502C25.3262 5.99396 24.9471 5.96527 24.5826 6.04233C24.218 6.1194 23.883 6.299 23.617 6.56002C23.3619 6.08823 22.9841 5.69417 22.5234 5.41954C22.0627 5.14491 21.5363 4.99992 21 4.99992C20.4637 4.99992 19.9373 5.14491 19.4766 5.41954C19.016 5.69417 18.6381 6.08823 18.383 6.56002C18.1005 6.28769 17.744 6.10449 17.3581 6.03325C16.9722 5.96201 16.5739 6.00588 16.2127 6.15938C15.8516 6.31289 15.5435 6.56925 15.327 6.89654C15.1105 7.22383 14.9951 7.60759 14.9951 8.00002C14.9951 8.39245 15.1105 8.77621 15.327 9.1035C15.5435 9.43079 15.8516 9.68715 16.2127 9.84066C16.5739 9.99416 16.9722 10.038 17.3581 9.96679C17.744 9.89555 18.1005 9.71236 18.383 9.44002C18.6393 9.91081 19.0174 10.304 19.4778 10.5785C19.9382 10.8529 20.464 10.9985 21 11C21.3481 10.9985 21.6931 10.9352 22.019 10.813C22.019 10.876 22 10.936 22 11C21.9986 11.6346 22.1989 12.2532 22.5719 12.7665C22.9449 13.2799 23.4713 13.6614 24.0753 13.8561C24.6792 14.0508 25.3294 14.0486 25.932 13.8498C26.5346 13.651 27.0585 13.2659 27.428 12.75C27.8263 12.945 28.27 13.0284 28.712 12.9914C29.1539 12.9545 29.5776 12.7985 29.938 12.54C30.5837 12.8415 31.2874 12.9985 32 13C32.8064 12.9992 33.6006 12.803 34.3147 12.4283C35.0287 12.0535 35.6413 11.5113 36.1 10.848C36.5993 11.0183 37.1359 11.0479 37.6509 10.9336C38.1659 10.8193 38.6396 10.5655 39.02 10.2C39.0619 10.8999 39.349 11.5626 39.8308 12.0718C40.3127 12.5811 40.9585 12.9044 41.6549 12.9849C42.3514 13.0655 43.0539 12.8981 43.6393 12.5123C44.2247 12.1265 44.6554 11.5468 44.856 10.875C45.6076 10.6446 46.2395 10.1297 46.617 9.44002C46.8528 9.66733 47.1409 9.83324 47.4559 9.92317C47.7708 10.0131 48.1031 10.0243 48.4234 9.95575C48.7437 9.88722 49.0423 9.74107 49.2929 9.53014C49.5435 9.31921 49.7384 9.04996 49.8606 8.74605C49.9828 8.44214 50.0284 8.11287 49.9936 7.78717C49.9587 7.46148 49.8444 7.14933 49.6607 6.87816C49.4769 6.60699 49.2294 6.3851 48.9399 6.23198C48.6503 6.07886 48.3276 5.99921 48 6.00002Z" fill="#F89C8D"/>
<path d="M48.617 6.44001C48.2387 7.12813 47.6069 7.64152 46.856 7.87101C46.6557 8.54262 46.2252 9.12225 45.6402 9.50823C45.0552 9.8942 44.353 10.0619 43.6567 9.98181C42.9605 9.90175 42.3146 9.57909 41.8325 9.07042C41.3503 8.56176 41.0627 7.89956 41.02 7.20001C40.6403 7.56567 40.1673 7.81989 39.6529 7.93488C39.1384 8.04987 38.6023 8.0212 38.103 7.85201C37.6436 8.51493 37.0303 9.05663 36.3157 9.43072C35.6012 9.80481 34.8066 10.0001 34 10C33.2874 9.99844 32.5837 9.84145 31.938 9.54001C31.5776 9.79846 31.1539 9.95446 30.712 9.99143C30.27 10.0284 29.8263 9.94498 29.428 9.75001C29.0585 10.2659 28.5346 10.651 27.932 10.8498C27.3294 11.0486 26.6792 11.0508 26.0753 10.8561C25.4713 10.6614 24.9449 10.2798 24.5719 9.76649C24.1989 9.25314 23.9986 8.63456 24 8.00001C24 7.93601 24.015 7.87601 24.019 7.81301C23.6931 7.93519 23.3481 7.9985 23 8.00001C22.464 7.99852 21.9382 7.85292 21.4778 7.57847C21.0174 7.30401 20.6393 6.9108 20.383 6.44001C20.1676 6.64867 19.9078 6.80586 19.623 6.89981C19.3382 6.99375 19.0358 7.02202 18.7385 6.98248C18.4412 6.94294 18.1568 6.83662 17.9064 6.67149C17.6561 6.50637 17.4464 6.28672 17.293 6.02901C17.1962 6.01222 17.0982 6.00253 17 6.00001C16.6724 5.9992 16.3497 6.07885 16.0601 6.23197C15.7706 6.38508 15.5231 6.60698 15.3393 6.87815C15.1556 7.14932 15.0413 7.46147 15.0064 7.78716C14.9716 8.11285 15.0172 8.44212 15.1394 8.74604C15.2616 9.04995 15.4565 9.3192 15.7071 9.53013C15.9577 9.74106 16.2563 9.88721 16.5766 9.95574C16.8969 10.0243 17.2292 10.0131 17.5441 9.92315C17.8591 9.83323 18.1472 9.66732 18.383 9.44001C18.6393 9.91079 19.0174 10.304 19.4778 10.5785C19.9382 10.8529 20.464 10.9985 21 11C21.3481 10.9985 21.6931 10.9352 22.019 10.813C22.019 10.876 22 10.936 22 11C21.9986 11.6346 22.1989 12.2531 22.5719 12.7665C22.9449 13.2798 23.4713 13.6614 24.0753 13.8561C24.6792 14.0508 25.3294 14.0486 25.932 13.8498C26.5346 13.651 27.0585 13.2659 27.428 12.75C27.8263 12.945 28.27 13.0284 28.712 12.9914C29.1539 12.9545 29.5776 12.7985 29.938 12.54C30.5837 12.8415 31.2874 12.9984 32 13C32.8064 12.9992 33.6006 12.803 34.3147 12.4283C35.0287 12.0535 35.6413 11.5113 36.1 10.848C36.5993 11.0183 37.1359 11.0479 37.6509 10.9336C38.1659 10.8193 38.6396 10.5655 39.02 10.2C39.0619 10.8998 39.349 11.5625 39.8308 12.0718C40.3127 12.5811 40.9585 12.9044 41.6549 12.9849C42.3514 13.0655 43.0539 12.8981 43.6393 12.5123C44.2247 12.1265 44.6554 11.5468 44.856 10.875C45.6076 10.6446 46.2395 10.1296 46.617 9.44001C46.965 9.77901 47.4247 9.97925 47.9099 10.0031C48.3952 10.0269 48.8724 9.87276 49.2519 9.56951C49.6314 9.26626 49.8871 8.83484 49.9709 8.35634C50.0547 7.87783 49.9609 7.38519 49.707 6.97101C49.2973 6.91163 48.9163 6.72602 48.617 6.44001V6.44001Z" fill="#F8664F"/>
<path d="M39.954 28.978C39.7569 28.6776 39.4882 28.4309 39.1721 28.2602C38.8559 28.0894 38.5023 28 38.143 28H31C29.6739 28 28.4021 27.4732 27.4644 26.5355C26.5268 25.5979 26 24.3261 26 23H24C23.8385 26.2905 23.1427 29.5329 21.94 32.6L21.606 33.451C21.5305 33.6438 21.4938 33.8495 21.4979 34.0565C21.5019 34.2635 21.5467 34.4676 21.6297 34.6573C21.7127 34.847 21.8322 35.0184 21.9814 35.1619C22.1307 35.3054 22.3067 35.4181 22.4995 35.4935C22.6923 35.5689 22.898 35.6057 23.105 35.6016C23.312 35.5975 23.5161 35.5527 23.7058 35.4698C23.8954 35.3868 24.0669 35.2673 24.2104 35.118C24.3539 34.9688 24.4665 34.7928 24.542 34.6L25.067 33.243C25.1509 33.0254 25.3082 32.844 25.5118 32.7301C25.7153 32.6163 25.9523 32.5771 26.1816 32.6195C26.4109 32.6619 26.6183 32.783 26.7677 32.9621C26.9171 33.1411 26.9993 33.3668 27 33.6V41.935C27.0038 42.4685 27.2141 42.9797 27.5868 43.3615C27.9595 43.7432 28.4656 43.9657 28.9989 43.9822C29.5321 43.9988 30.051 43.8081 30.4467 43.4503C30.8424 43.0924 31.084 42.5952 31.121 42.063L31.679 33.129C31.6933 32.8972 31.7878 32.6777 31.9463 32.508C32.1048 32.3383 32.3174 32.229 32.5477 32.199C32.778 32.1689 33.0115 32.22 33.2083 32.3433C33.405 32.4667 33.5527 32.6547 33.626 32.875L34.476 35.426C34.6077 35.8338 34.8925 36.1746 35.2703 36.3769C35.6481 36.5791 36.0897 36.627 36.5021 36.5104C36.9145 36.3939 37.2656 36.122 37.4818 35.752C37.6979 35.3819 37.7621 34.9424 37.661 34.526L36.861 31.066C36.8096 30.844 36.8355 30.611 36.9346 30.4058C37.0336 30.2005 37.1998 30.0352 37.4057 29.9373C37.6115 29.8394 37.8446 29.8148 38.0663 29.8675C38.2881 29.9201 38.4852 30.047 38.625 30.227L39.577 31.452C39.7708 31.7044 40.0449 31.8833 40.354 31.9591C40.6632 32.0348 40.9889 32.003 41.2775 31.8688C41.5661 31.7347 41.8004 31.5061 41.9418 31.2209C42.0831 30.9358 42.123 30.6109 42.055 30.3C41.6307 30.2423 41.2237 30.0945 40.8613 29.8665C40.4989 29.6385 40.1896 29.3355 39.954 28.978V28.978Z" fill="#F8664F"/>
<path d="M53 60C52.1116 60.5922 51.0677 60.9082 50 60.9082C48.9323 60.9082 47.8884 60.5922 47 60C46.1116 59.4078 45.0677 59.0918 44 59.0918C42.9323 59.0918 41.8884 59.4078 41 60C40.1116 60.5922 39.0677 60.9082 38 60.9082C36.9323 60.9082 35.8884 60.5922 35 60C34.1116 59.4078 33.0677 59.0918 32 59.0918C30.9323 59.0918 29.8884 59.4078 29 60C28.1116 60.5922 27.0677 60.9082 26 60.9082C24.9323 60.9082 23.8884 60.5922 23 60C22.1116 59.4078 21.0677 59.0918 20 59.0918C18.9323 59.0918 17.8884 59.4078 17 60C16.1116 60.5922 15.0677 60.9082 14 60.9082C12.9323 60.9082 11.8884 60.5922 11 60C10.1116 59.4078 9.06772 59.0918 8 59.0918C6.93228 59.0918 5.88844 59.4078 5 60L3.5 61H60.5L59 60C58.1116 59.4078 57.0677 59.0918 56 59.0918C54.9323 59.0918 53.8884 59.4078 53 60V60Z" fill="#57B7EB"/>
<path d="M61.555 58.5L59.555 57.167C58.6521 56.5638 57.6103 56.2007 56.5281 56.1122C55.4459 56.0237 54.3589 56.2126 53.37 56.661C48.156 50.742 44.4295 43.6644 42.5 36.016C42.4681 35.8886 42.4114 35.7686 42.3331 35.6631C42.2549 35.5576 42.1566 35.4685 42.0439 35.4009C41.9312 35.3334 41.8063 35.2887 41.6764 35.2694C41.5464 35.2501 41.4139 35.2566 41.2865 35.2885C41.159 35.3204 41.0391 35.3771 40.9336 35.4554C40.8281 35.5336 40.739 35.6319 40.6714 35.7446C40.6039 35.8573 40.5592 35.9822 40.5399 36.1121C40.5206 36.2421 40.5271 36.3746 40.559 36.502C42.5282 44.3002 46.2934 51.53 51.554 57.614C50.9001 57.8644 50.1957 57.9545 49.4998 57.8769C48.8039 57.7993 48.1367 57.5562 47.554 57.168C46.4192 56.414 45.0729 56.0429 43.712 56.109C42.4682 53.3914 41.4225 50.5874 40.583 47.719C40.5495 47.5892 40.4902 47.4674 40.4087 47.361C40.3271 47.2545 40.225 47.1656 40.1084 47.0994C39.9918 47.0332 39.8631 46.9911 39.7299 46.9757C39.5967 46.9602 39.4618 46.9717 39.3331 47.0095C39.2044 47.0473 39.0847 47.1105 38.981 47.1955C38.8773 47.2805 38.7917 47.3854 38.7294 47.5042C38.667 47.6229 38.6292 47.7529 38.6182 47.8865C38.6071 48.0202 38.623 48.1547 38.665 48.282C39.4896 51.0986 40.507 53.8551 41.71 56.532C41.2658 56.6966 40.8412 56.9099 40.444 57.168C39.6286 57.7093 38.6557 57.9623 37.68 57.887L37.604 57.409C36.879 52.781 36.313 47.437 35.922 41.525C35.9045 41.2598 35.7823 41.0124 35.5824 40.8372C35.3825 40.6621 35.1212 40.5735 34.856 40.591C34.5908 40.6085 34.3434 40.7307 34.1682 40.9306C33.9931 41.1305 33.9045 41.3918 33.922 41.657C34.302 47.396 34.847 52.605 35.542 57.163C34.8196 56.6839 34.0071 56.357 33.1542 56.2022C32.3012 56.0475 31.4257 56.0682 30.581 56.263C30.923 53.903 31.232 51.363 31.496 48.663C31.5091 48.5323 31.4964 48.4004 31.4585 48.2746C31.4207 48.1489 31.3584 48.0318 31.2753 47.9301C31.1074 47.7248 30.8649 47.5945 30.601 47.568C30.4703 47.5549 30.3384 47.5676 30.2126 47.6055C30.0869 47.6433 29.9698 47.7056 29.8681 47.7887C29.6628 47.9566 29.5325 48.1991 29.506 48.463C29.2 51.592 28.835 54.516 28.424 57.169C27.7013 57.6486 26.8529 57.9036 25.9856 57.902C25.1183 57.9004 24.2709 57.6423 23.55 57.16C23.1495 56.8995 22.7212 56.6845 22.273 56.519C23.7785 53.1604 25.0001 49.6815 25.925 46.119C25.9751 45.9874 25.9968 45.8467 25.9887 45.7062C25.9807 45.5656 25.9431 45.4284 25.8783 45.3034C25.8135 45.1783 25.7231 45.0684 25.6129 44.9808C25.5028 44.8931 25.3753 44.8297 25.239 44.7947C25.1026 44.7597 24.9604 44.7539 24.8216 44.7777C24.6828 44.8015 24.5506 44.8543 24.4337 44.9326C24.3167 45.011 24.2176 45.1132 24.1429 45.2325C24.0682 45.3518 24.0195 45.4856 24 45.625C23.0682 49.2214 21.8238 52.7294 20.281 56.109C18.9238 56.0453 17.5817 56.4163 16.45 57.168C15.7263 57.6517 14.8754 57.9099 14.005 57.9099C13.1346 57.9099 12.2837 57.6517 11.56 57.168C10.5077 56.465 9.27053 56.0898 8.005 56.0898C6.73946 56.0898 5.50234 56.465 4.45 57.168L2.45 58.501C2.34067 58.5739 2.24677 58.6676 2.17366 58.7768C2.10055 58.8859 2.04965 59.0084 2.02389 59.1373C1.99812 59.2661 1.99798 59.3988 2.02348 59.5277C2.04898 59.6566 2.09961 59.7792 2.1725 59.8885C2.24538 59.9978 2.33908 60.0917 2.44826 60.1648C2.55743 60.238 2.67993 60.2888 2.80877 60.3146C2.93762 60.3404 3.07027 60.3405 3.19917 60.315C3.32806 60.2895 3.45067 60.2389 3.56 60.166L5.56 58.832C6.28367 58.3483 7.13456 58.0901 8.005 58.0901C8.87544 58.0901 9.72632 58.3483 10.45 58.832C11.5023 59.535 12.7395 59.9102 14.005 59.9102C15.2705 59.9102 16.5077 59.535 17.56 58.832C18.2837 58.3483 19.1346 58.0901 20.005 58.0901C20.8754 58.0901 21.7263 58.3483 22.45 58.832C23.5023 59.535 24.7395 59.9102 26.005 59.9102C27.2705 59.9102 28.5077 59.535 29.56 58.832C30.2837 58.3483 31.1346 58.0901 32.005 58.0901C32.8754 58.0901 33.7263 58.3483 34.45 58.832C35.5023 59.535 36.7395 59.9102 38.005 59.9102C39.2705 59.9102 40.5077 59.535 41.56 58.832C42.2837 58.3483 43.1346 58.0901 44.005 58.0901C44.8754 58.0901 45.7263 58.3483 46.45 58.832C47.5023 59.535 48.7395 59.9102 50.005 59.9102C51.2705 59.9102 52.5077 59.535 53.56 58.832C54.2833 58.3474 55.1343 58.0887 56.005 58.0887C56.8756 58.0887 57.7267 58.3474 58.45 58.832L60.45 60.166C60.6708 60.3132 60.941 60.3667 61.2012 60.3146C61.4614 60.2626 61.6903 60.1093 61.8375 59.8885C61.9847 59.6677 62.0381 59.3975 61.9861 59.1373C61.9341 58.8771 61.7808 58.6482 61.56 58.501L61.555 58.5Z" fill="#323232"/>
<path d="M17 11C17.39 11.0004 17.7763 10.9243 18.137 10.776C18.5221 11.1774 18.9871 11.4937 19.5019 11.7045C20.0167 11.9153 20.5699 12.016 21.126 12C21.3331 12.7918 21.7781 13.501 22.4009 14.0319C23.0237 14.5628 23.7944 14.8899 24.609 14.969C25.4025 17.2333 25.8558 19.6027 25.954 22H24C23.743 21.9997 23.4958 22.0983 23.3096 22.2754C23.1235 22.4524 23.0126 22.6944 23 22.951C22.846 26.1345 22.1732 29.2714 21.008 32.238L20.674 33.089C20.4683 33.6032 20.4366 34.1705 20.5836 34.7044C20.7305 35.2384 21.0482 35.7095 21.488 36.046C19.8308 42.6657 16.8108 48.8668 12.621 54.253C12.4678 54.4631 12.4025 54.7245 12.4389 54.9819C12.4753 55.2393 12.6105 55.4725 12.8158 55.6319C13.0211 55.7913 13.2805 55.8645 13.5389 55.836C13.7973 55.8075 14.0344 55.6794 14.2 55.479C18.5503 49.8848 21.6886 43.4462 23.415 36.573C23.871 36.5133 24.3026 36.3321 24.6645 36.0483C25.0264 35.7645 25.3053 35.3886 25.472 34.96L26 33.6C26 33.8652 26.1053 34.1196 26.2929 34.3071C26.4804 34.4947 26.7348 34.6 27 34.6C27.2652 34.6 27.5195 34.4947 27.7071 34.3071C27.8946 34.1196 28 33.8652 28 33.6C27.9999 33.1333 27.8366 32.6814 27.5385 32.3224C27.2403 31.9635 26.826 31.72 26.3672 31.6344C25.9085 31.5487 25.4342 31.6261 25.0266 31.8532C24.6189 32.0803 24.3035 32.4428 24.135 32.878L23.61 34.234C23.5573 34.3703 23.4546 34.4813 23.3228 34.5445C23.1911 34.6076 23.0402 34.6182 22.901 34.574C22.895 34.574 22.891 34.567 22.884 34.566C22.8121 34.5401 22.746 34.5003 22.6895 34.4488C22.6331 34.3973 22.5873 34.3352 22.555 34.266C22.5217 34.1953 22.5033 34.1185 22.5009 34.0405C22.4985 33.9624 22.5121 33.8846 22.541 33.812L22.875 32.961C23.9999 30.0918 24.6951 27.0723 24.938 24H39.082C39.3266 26.2419 39.9909 28.4177 41.04 30.414C41.072 30.475 41.0878 30.5433 41.0857 30.6122C41.0836 30.6811 41.0637 30.7483 41.028 30.8073C40.9922 30.8662 40.9419 30.915 40.8818 30.9487C40.8217 30.9825 40.7539 31.0002 40.685 31C40.6241 30.9997 40.5641 30.9857 40.5094 30.9591C40.4547 30.9324 40.4067 30.8938 40.369 30.846L39.417 29.621C39.1374 29.2608 38.743 29.0069 38.2994 28.9015C37.8557 28.7961 37.3894 28.8455 36.9776 29.0414C36.5659 29.2374 36.2334 29.5682 36.0354 29.979C35.8374 30.3897 35.7858 30.8558 35.889 31.3L36.689 34.76C36.7273 34.9245 36.7008 35.0975 36.6148 35.2429C36.5288 35.3884 36.39 35.495 36.2273 35.5406C36.0646 35.5863 35.8906 35.5674 35.7415 35.4879C35.5924 35.4084 35.4798 35.2745 35.427 35.114L34.577 32.564C34.4305 32.1234 34.1352 31.7474 33.7418 31.5007C33.3484 31.254 32.8814 31.1518 32.4209 31.2118C31.9604 31.2717 31.5351 31.49 31.218 31.8293C30.9009 32.1685 30.7118 32.6075 30.683 33.071L30.123 42C30.1028 42.273 29.9782 42.5277 29.7749 42.7111C29.5716 42.8945 29.3055 42.9924 29.0318 42.9844C28.7582 42.9764 28.4982 42.8632 28.306 42.6682C28.1137 42.4733 28.0041 42.2117 28 41.938V36.926C28 36.6608 27.8946 36.4064 27.7071 36.2189C27.5195 36.0314 27.2652 35.926 27 35.926C26.7348 35.926 26.4804 36.0314 26.2929 36.2189C26.1053 36.4064 26 36.6608 26 36.926V41.938C25.9956 42.7365 26.3032 43.5051 26.8574 44.08C27.4115 44.6548 28.1683 44.9905 28.9664 45.0154C29.7645 45.0403 30.5407 44.7525 31.1297 44.2133C31.7186 43.6741 32.0736 42.9262 32.119 42.129L32.677 33.194L33.527 35.745C33.7443 36.3909 34.2016 36.9286 34.8041 37.2469C35.4067 37.5652 36.1086 37.6399 36.7646 37.4553C37.4207 37.2708 37.9807 36.8413 38.329 36.2555C38.6773 35.6697 38.7872 34.9725 38.636 34.308L37.836 30.848L38.79 32.074C39.0152 32.3616 39.3028 32.5944 39.631 32.7548C39.9593 32.9152 40.3196 32.999 40.685 33C41.0982 33.0003 41.5045 32.8939 41.8645 32.6911C42.2245 32.4883 42.5261 32.196 42.74 31.8425C42.954 31.489 43.073 31.0862 43.0856 30.6732C43.0982 30.2602 43.0039 29.8509 42.812 29.485C41.7705 27.5012 41.1572 25.3208 41.012 23.085L41 22.934C40.9832 22.6804 40.8705 22.4427 40.6847 22.2692C40.499 22.0957 40.2541 21.9995 40 22H38.029C38.1535 19.0495 38.8083 16.1455 39.962 13.427C40.4428 13.7185 40.9802 13.9041 41.5384 13.9716C42.0966 14.039 42.6627 13.9867 43.1991 13.8182C43.7355 13.6497 44.2299 13.3688 44.6492 12.9942C45.0685 12.6197 45.4032 12.1601 45.631 11.646C46.0944 11.4381 46.5134 11.1427 46.865 10.776C47.225 10.9243 47.6106 11.0004 48 11C48.4431 11.0001 48.8807 10.902 49.2814 10.7128C49.6821 10.5235 50.0359 10.2479 50.3174 9.90567C50.5989 9.56343 50.8011 9.16308 50.9094 8.73339C51.0177 8.30371 51.0295 7.85536 50.944 7.42058C50.8584 6.9858 50.6775 6.57537 50.4144 6.2188C50.1513 5.86223 49.8125 5.56838 49.4223 5.35836C49.0321 5.14834 48.6002 5.02736 48.1577 5.00413C47.7152 4.9809 47.273 5.05599 46.863 5.22401C46.1506 4.47896 45.1757 4.04121 44.1456 4.00385C43.1155 3.9665 42.1114 4.3325 41.347 5.02401C40.9074 4.96862 40.461 5.01344 40.0412 5.15511C39.6214 5.29677 39.2391 5.5316 38.923 5.84201C38.8228 5.93165 38.7417 6.04058 38.6845 6.16228C38.6274 6.28399 38.5954 6.41596 38.5904 6.55031C38.5855 6.68467 38.6076 6.81864 38.6556 6.94423C38.7036 7.06982 38.7765 7.18444 38.8698 7.28124C38.9631 7.37804 39.0749 7.45504 39.1987 7.50762C39.3224 7.5602 39.4555 7.58729 39.5899 7.58726C39.7244 7.58724 39.8574 7.56011 39.9811 7.50749C40.1049 7.45487 40.2167 7.37784 40.31 7.28101C40.4393 7.14549 40.6067 7.0524 40.7901 7.01401C40.9734 6.97562 41.1641 6.99375 41.337 7.06601C41.5325 7.1362 41.745 7.14377 41.9449 7.08768C42.1449 7.03159 42.3225 6.91462 42.453 6.75301C42.6555 6.49543 42.9191 6.29242 43.2199 6.16233C43.5206 6.03225 43.8491 5.97921 44.1755 6.008C44.5019 6.03679 44.816 6.1465 45.0893 6.32722C45.3627 6.50794 45.5866 6.75395 45.741 7.04301C45.815 7.17737 45.919 7.29289 46.0449 7.38063C46.1707 7.46837 46.3151 7.52597 46.4668 7.54898C46.6185 7.57199 46.7734 7.55978 46.9196 7.51332C47.0658 7.46685 47.1994 7.38736 47.31 7.28101C47.4511 7.14455 47.6294 7.05267 47.8224 7.01682C48.0154 6.98097 48.2147 7.00274 48.3955 7.07941C48.5762 7.15608 48.7304 7.28426 48.8388 7.44797C48.9472 7.61168 49.005 7.80367 49.005 8.00001C49.005 8.19634 48.9472 8.38834 48.8388 8.55205C48.7304 8.71576 48.5762 8.84394 48.3955 8.92061C48.2147 8.99728 48.0154 9.01905 47.8224 8.9832C47.6294 8.94734 47.4511 8.85546 47.31 8.71901C47.1994 8.61265 47.0658 8.53316 46.9196 8.4867C46.7734 8.44023 46.6185 8.42803 46.4668 8.45104C46.3151 8.47405 46.1707 8.53165 46.0449 8.61939C45.919 8.70713 45.815 8.82265 45.741 8.95701C45.4882 9.41586 45.0674 9.75888 44.567 9.91401C44.4097 9.96154 44.2666 10.0471 44.1503 10.1631C44.0339 10.279 43.948 10.4219 43.9 10.579C43.7679 11.0272 43.4818 11.4144 43.0921 11.6723C42.7024 11.9301 42.2342 12.0421 41.77 11.9884C41.3058 11.9347 40.8755 11.7188 40.555 11.3788C40.2344 11.0388 40.0442 10.5965 40.018 10.13C40.0058 9.94094 39.9401 9.75923 39.8287 9.60603C39.7172 9.45283 39.5645 9.33445 39.3884 9.26467C39.2122 9.19488 39.0199 9.17657 38.8338 9.21186C38.6476 9.24715 38.4753 9.33459 38.337 9.46401C37.9758 9.80633 37.4976 9.99802 37 10C36.7958 9.99585 36.5934 9.96044 36.4 9.89501C36.1968 9.83098 35.9785 9.8335 35.7768 9.90221C35.5752 9.97093 35.4008 10.1022 35.279 10.277C34.7437 11.04 33.9593 11.5927 33.0606 11.84C32.162 12.0873 31.2053 12.0138 30.355 11.632C30.1951 11.5577 30.0183 11.5269 29.8427 11.5429C29.6671 11.5589 29.4988 11.621 29.355 11.723C29.1398 11.8779 28.8865 11.9714 28.6223 11.9934C28.3581 12.0154 28.0928 11.9651 27.855 11.848C27.6436 11.747 27.4035 11.7234 27.1765 11.7813C26.9495 11.8393 26.7501 11.9751 26.613 12.165C26.3682 12.5055 26.0224 12.7603 25.6246 12.8929C25.2267 13.0256 24.7972 13.0295 24.3971 12.904C23.9969 12.7785 23.6465 12.5301 23.3957 12.194C23.1449 11.8579 23.0064 11.4513 23 11.032C23 11.006 23.016 10.9 23.017 10.874C23.0272 10.7081 22.9959 10.5423 22.9259 10.3915C22.8559 10.2408 22.7494 10.1098 22.6161 10.0106C22.4828 9.91131 22.3268 9.84684 22.1623 9.823C21.9978 9.79915 21.83 9.81668 21.674 9.87401C21.2288 10.041 20.738 10.04 20.2934 9.8712C19.8489 9.70241 19.4811 9.3774 19.259 8.95701C19.1849 8.82262 19.0809 8.70707 18.955 8.61933C18.8291 8.53158 18.6847 8.47399 18.533 8.45101C18.3813 8.42879 18.2266 8.44138 18.0806 8.48781C17.9345 8.53424 17.8009 8.61331 17.69 8.71901C17.5488 8.85546 17.3706 8.94734 17.1776 8.9832C16.9845 9.01905 16.7852 8.99728 16.6045 8.92061C16.4237 8.84394 16.2695 8.71576 16.1611 8.55205C16.0528 8.38834 15.995 8.19634 15.995 8.00001C15.995 7.80367 16.0528 7.61168 16.1611 7.44797C16.2695 7.28426 16.4237 7.15608 16.6045 7.07941C16.7852 7.00274 16.9845 6.98097 17.1776 7.01682C17.3706 7.05267 17.5488 7.14455 17.69 7.28101C17.8005 7.38736 17.9341 7.46685 18.0803 7.51332C18.2265 7.55978 18.3815 7.57199 18.5332 7.54898C18.6849 7.52597 18.8292 7.46837 18.9551 7.38063C19.0809 7.29289 19.1849 7.17737 19.259 7.04301C19.4277 6.72798 19.6787 6.46465 19.9853 6.28105C20.2919 6.09746 20.6426 6.0005 21 6.0005C21.3573 6.0005 21.708 6.09746 22.0146 6.28105C22.3212 6.46465 22.5722 6.72798 22.741 7.04301C22.815 7.17737 22.919 7.29289 23.0449 7.38063C23.1707 7.46837 23.3151 7.52597 23.4668 7.54898C23.6185 7.57199 23.7734 7.55978 23.9196 7.51332C24.0658 7.46685 24.1994 7.38736 24.31 7.28101C24.4393 7.14549 24.6067 7.0524 24.7901 7.01401C24.9734 6.97562 25.1641 6.99375 25.337 7.06601C25.5325 7.1362 25.745 7.14377 25.9449 7.08768C26.1449 7.03159 26.3225 6.91462 26.453 6.75301C26.6346 6.52436 26.8643 6.3384 27.1258 6.20829C27.3872 6.07817 27.674 6.00707 27.966 6.00001C28.1306 6.01317 28.2959 5.9832 28.4455 5.91306C28.5951 5.84292 28.7238 5.73503 28.819 5.60001C29.1959 5.09243 29.6885 4.68214 30.2559 4.40326C30.8232 4.12439 31.449 3.98497 32.0811 3.99661C32.7132 4.00825 33.3334 4.1706 33.8901 4.47018C34.4468 4.76975 34.924 5.19789 35.282 5.71901C35.3553 5.83071 35.4502 5.92659 35.5612 6.00098C35.6722 6.07537 35.797 6.12676 35.9281 6.15213C36.0593 6.1775 36.1943 6.17632 36.325 6.14866C36.4557 6.12101 36.5795 6.06744 36.6892 5.99112C36.7989 5.9148 36.8921 5.81728 36.9635 5.70431C37.0348 5.59135 37.0828 5.46523 37.1046 5.33341C37.1264 5.20159 37.1216 5.06674 37.0904 4.93682C37.0592 4.80691 37.0022 4.68456 36.923 4.57701C36.371 3.78235 35.635 3.13298 34.7778 2.68426C33.9206 2.23554 32.9675 2.00078 32 2.00001C31.1526 1.99864 30.3148 2.17895 29.543 2.52879C28.7713 2.87862 28.0834 3.38985 27.526 4.02801C26.7146 4.12719 25.9537 4.47432 25.347 5.02201C24.8433 4.95878 24.3319 5.02771 23.863 5.22201C23.4932 4.83509 23.0489 4.52713 22.5568 4.31673C22.0648 4.10633 21.5351 3.99785 21 3.99785C20.4648 3.99785 19.9352 4.10633 19.4431 4.31673C18.951 4.52713 18.5067 4.83509 18.137 5.22201C17.727 5.05488 17.2852 4.98055 16.8431 5.00435C16.4011 5.02815 15.9698 5.14949 15.5801 5.35966C15.1905 5.56984 14.8522 5.86364 14.5896 6.21999C14.3269 6.57634 14.1463 6.98641 14.0609 7.42078C13.9754 7.85514 13.9871 8.30305 14.0952 8.73235C14.2032 9.16166 14.405 9.56172 14.6859 9.90385C14.9669 10.246 15.32 10.5217 15.7201 10.7112C16.1202 10.9007 16.5573 10.9994 17 11ZM27.732 13.912C28.5007 14.0872 29.3062 13.9955 30.016 13.652C31.1427 14.0425 32.3599 14.0904 33.5138 13.7898C34.6678 13.4892 35.7069 12.8535 36.5 11.963C37.1468 12.0555 37.8065 11.9776 38.414 11.737C38.434 11.78 38.462 11.818 38.483 11.859C37.003 15.044 36.169 18.4907 36.029 22H34.7C34.726 20.887 34.772 19.866 34.838 18.906C34.8563 18.6408 34.7685 18.3792 34.5939 18.1787C34.4193 17.9782 34.1722 17.8553 33.907 17.837C33.6418 17.8187 33.3801 17.9065 33.1797 18.0811C32.9792 18.2557 32.8563 18.5028 32.838 18.768C32.769 19.768 32.722 20.839 32.694 22H31.289C31.247 20.224 31.159 18.593 31.016 17.058C31.0038 16.9272 30.9659 16.8001 30.9046 16.6839C30.8432 16.5678 30.7596 16.4648 30.6585 16.381C30.5574 16.2971 30.4407 16.234 30.3152 16.1952C30.1897 16.1565 30.0578 16.1428 29.927 16.155C29.7962 16.1672 29.6691 16.2051 29.5529 16.2664C29.4367 16.3277 29.3338 16.4114 29.2499 16.5125C29.1661 16.6136 29.103 16.7303 29.0642 16.8558C29.0254 16.9813 29.0118 17.1132 29.024 17.244C29.162 18.719 29.247 20.289 29.289 22H27.954C27.8582 19.497 27.4046 17.0205 26.607 14.646C27.0202 14.4657 27.4004 14.2176 27.732 13.912V13.912Z" fill="#323232"/>
<path d="M46.674 20.9C46.7528 21.005 46.8515 21.0936 46.9645 21.1605C47.0775 21.2274 47.2026 21.2714 47.3326 21.2899C47.4626 21.3085 47.595 21.3013 47.7222 21.2687C47.8494 21.2361 47.9689 21.1788 48.074 21.1C48.1791 21.0212 48.2676 20.9225 48.3345 20.8095C48.4014 20.6965 48.4454 20.5714 48.464 20.4414C48.4825 20.3114 48.4753 20.179 48.4427 20.0518C48.4101 19.9246 48.3528 19.805 48.274 19.7C47.4235 18.5641 46.2564 17.7049 44.9192 17.2302C43.582 16.7556 42.1343 16.6866 40.758 17.032C40.6298 17.0631 40.509 17.1193 40.4027 17.1974C40.2963 17.2754 40.2064 17.3737 40.1382 17.4866C40.07 17.5995 40.0247 17.7248 40.0052 17.8553C39.9856 17.9857 39.992 18.1188 40.0241 18.2467C40.0561 18.3747 40.1132 18.4951 40.1919 18.6009C40.2707 18.7067 40.3697 18.7959 40.4831 18.8633C40.5965 18.9307 40.7221 18.975 40.8527 18.9937C40.9833 19.0123 41.1163 19.005 41.244 18.972C42.2384 18.7223 43.2843 18.7721 44.2505 19.1151C45.2166 19.4582 46.0598 20.0791 46.674 20.9V20.9Z" fill="#323232"/>
<path d="M46.81 30.741C46.8439 30.9791 46.9624 31.1969 47.1439 31.3547C47.3253 31.5125 47.5575 31.5996 47.798 31.6C47.8458 31.6002 47.8936 31.5969 47.941 31.59C48.2035 31.5526 48.4405 31.4125 48.5997 31.2004C48.7589 30.9883 48.8274 30.7216 48.79 30.459C48.2327 26.612 46.4503 23.0471 43.707 20.293C43.5184 20.1109 43.2658 20.0101 43.0036 20.0124C42.7414 20.0146 42.4906 20.1198 42.3052 20.3052C42.1198 20.4906 42.0146 20.7414 42.0123 21.0036C42.01 21.2658 42.1108 21.5184 42.293 21.707C44.7307 24.1545 46.3147 27.3224 46.81 30.741V30.741Z" fill="#323232"/>
<path d="M46 15C46 15.2652 46.1054 15.5196 46.2929 15.7071C46.4804 15.8946 46.7348 16 47 16C48.1456 16.0048 49.2516 16.4202 50.1171 17.1708C50.9826 17.9215 51.5502 18.9575 51.717 20.091C51.7545 20.3536 51.8948 20.5905 52.107 20.7496C52.3192 20.9087 52.5859 20.977 52.8485 20.9395C53.1111 20.902 53.348 20.7617 53.5071 20.5495C53.6662 20.3373 53.7345 20.0706 53.697 19.808C53.4598 18.199 52.6537 16.7283 51.425 15.6627C50.1963 14.5972 48.6264 14.0072 47 14C46.7348 14 46.4804 14.1054 46.2929 14.2929C46.1054 14.4804 46 14.7348 46 15Z" fill="#323232"/>
<path d="M51 25C51.5523 25 52 24.5523 52 24C52 23.4477 51.5523 23 51 23C50.4477 23 50 23.4477 50 24C50 24.5523 50.4477 25 51 25Z" fill="#323232"/>
<path d="M52 30C52.5523 30 53 29.5523 53 29C53 28.4477 52.5523 28 52 28C51.4477 28 51 28.4477 51 29C51 29.5523 51.4477 30 52 30Z" fill="#323232"/>
<path d="M48 36C48.5523 36 49 35.5523 49 35C49 34.4477 48.5523 34 48 34C47.4477 34 47 34.4477 47 35C47 35.5523 47.4477 36 48 36Z" fill="#323232"/>
<path d="M17.326 20.9C17.9403 20.0789 18.7836 19.4578 19.75 19.1148C20.7163 18.7718 21.7625 18.7221 22.757 18.972C23.0135 19.0343 23.2842 18.9927 23.5102 18.8562C23.7361 18.7196 23.8989 18.4993 23.9631 18.2433C24.0272 17.9872 23.9875 17.7161 23.8526 17.4892C23.7177 17.2623 23.4986 17.098 23.243 17.032C21.8667 16.6866 20.419 16.7556 19.0818 17.2302C17.7446 17.7049 16.5775 18.5641 15.727 19.7C15.6482 19.805 15.5909 19.9246 15.5583 20.0518C15.5257 20.179 15.5185 20.3114 15.537 20.4414C15.5556 20.5714 15.5996 20.6965 15.6665 20.8095C15.7334 20.9225 15.8219 21.0212 15.927 21.1C16.032 21.1788 16.1516 21.2361 16.2788 21.2687C16.406 21.3013 16.5384 21.3085 16.6684 21.2899C16.7984 21.2714 16.9235 21.2274 17.0365 21.1605C17.1495 21.0936 17.2482 21.005 17.327 20.9H17.326Z" fill="#323232"/>
<path d="M16.059 31.59C16.1064 31.5969 16.1542 31.6002 16.202 31.6C16.4424 31.5996 16.6747 31.5125 16.8561 31.3547C17.0376 31.1969 17.1561 30.9791 17.19 30.741C17.6853 27.3224 19.2693 24.1545 21.707 21.707C21.8892 21.5184 21.99 21.2658 21.9877 21.0036C21.9854 20.7414 21.8802 20.4906 21.6948 20.3052C21.5094 20.1198 21.2586 20.0146 20.9964 20.0124C20.7342 20.0101 20.4816 20.1109 20.293 20.293C17.5497 23.0471 15.7672 26.612 15.21 30.459C15.1726 30.7216 15.2411 30.9883 15.4003 31.2004C15.5595 31.4125 15.7964 31.5526 16.059 31.59Z" fill="#323232"/>
<path d="M11.151 20.939C11.2811 20.9585 11.4138 20.9519 11.5414 20.9198C11.6689 20.8876 11.7889 20.8304 11.8942 20.7515C11.9995 20.6726 12.088 20.5736 12.1548 20.4602C12.2215 20.3469 12.2651 20.2213 12.283 20.091C12.4498 18.9575 13.0174 17.9215 13.8829 17.1708C14.7484 16.4202 15.8543 16.0048 17 16C17.2652 16 17.5196 15.8946 17.7071 15.7071C17.8946 15.5196 18 15.2652 18 15C18 14.7348 17.8946 14.4804 17.7071 14.2929C17.5196 14.1054 17.2652 14 17 14C15.3731 14.0065 13.8025 14.5961 12.5731 15.6618C11.3438 16.7274 10.5373 18.1985 10.3 19.808C10.2815 19.9382 10.2888 20.0707 10.3216 20.198C10.3544 20.3253 10.4119 20.4449 10.491 20.55C10.57 20.655 10.669 20.7434 10.7822 20.8102C10.8955 20.877 11.0208 20.9207 11.151 20.939V20.939Z" fill="#323232"/>
<path d="M13 25C13.5523 25 14 24.5523 14 24C14 23.4477 13.5523 23 13 23C12.4477 23 12 23.4477 12 24C12 24.5523 12.4477 25 13 25Z" fill="#323232"/>
<path d="M12 30C12.5523 30 13 29.5523 13 29C13 28.4477 12.5523 28 12 28C11.4477 28 11 28.4477 11 29C11 29.5523 11.4477 30 12 30Z" fill="#323232"/>
<path d="M16 36C16.5523 36 17 35.5523 17 35C17 34.4477 16.5523 34 16 34C15.4477 34 15 34.4477 15 35C15 35.5523 15.4477 36 16 36Z" fill="#323232"/>
<path d="M20 62C20.5523 62 21 61.5523 21 61C21 60.4477 20.5523 60 20 60C19.4477 60 19 60.4477 19 61C19 61.5523 19.4477 62 20 62Z" fill="#323232"/>
<path d="M56 62C56.5523 62 57 61.5523 57 61C57 60.4477 56.5523 60 56 60C55.4477 60 55 60.4477 55 61C55 61.5523 55.4477 62 56 62Z" fill="#323232"/>
<path d="M9 60H7C6.73478 60 6.48043 60.1054 6.29289 60.2929C6.10536 60.4804 6 60.7348 6 61C6 61.2652 6.10536 61.5196 6.29289 61.7071C6.48043 61.8946 6.73478 62 7 62H9C9.26522 62 9.51957 61.8946 9.70711 61.7071C9.89464 61.5196 10 61.2652 10 61C10 60.7348 9.89464 60.4804 9.70711 60.2929C9.51957 60.1054 9.26522 60 9 60Z" fill="#323232"/>
<path d="M45 60H43C42.7348 60 42.4804 60.1054 42.2929 60.2929C42.1054 60.4804 42 60.7348 42 61C42 61.2652 42.1054 61.5196 42.2929 61.7071C42.4804 61.8946 42.7348 62 43 62H45C45.2652 62 45.5196 61.8946 45.7071 61.7071C45.8946 61.5196 46 61.2652 46 61C46 60.7348 45.8946 60.4804 45.7071 60.2929C45.5196 60.1054 45.2652 60 45 60Z" fill="#323232"/>
<path d="M33 60H31C30.7348 60 30.4804 60.1054 30.2929 60.2929C30.1054 60.4804 30 60.7348 30 61C30 61.2652 30.1054 61.5196 30.2929 61.7071C30.4804 61.8946 30.7348 62 31 62H33C33.2652 62 33.5196 61.8946 33.7071 61.7071C33.8946 61.5196 34 61.2652 34 61C34 60.7348 33.8946 60.4804 33.7071 60.2929C33.5196 60.1054 33.2652 60 33 60Z" fill="#323232"/>
</svg>
