<?xml version="1.0" encoding="iso-8859-1"?>
<!-- Generator: Adobe Illustrator 19.0.0, SVG Export Plug-In . SVG Version: 6.00 Build 0)  -->
<svg version="1.1" id="Layer_1" xmlns="http://www.w3.org/2000/svg" xmlns:xlink="http://www.w3.org/1999/xlink" x="0px" y="0px"
	 viewBox="0 0 511.998 511.998" style="enable-background:new 0 0 511.998 511.998;" xml:space="preserve">
<g>
	<polygon style="fill:#B8D6FD;" points="482.336,140.44 430.127,140.44 445.282,116.67 482.336,110.468 	"/>
	<polygon style="fill:#B8D6FD;" points="22.566,140.44 74.775,140.44 59.62,116.67 33.593,123.037 	"/>
	<polygon style="fill:#B8D6FD;" points="399.805,140.44 314.745,420.95 249.145,479.487 176.636,372.475 95.234,140.557 
		220.538,32.514 276.197,57.209 	"/>
</g>
<polygon style="opacity:0.26;fill:#3C66B1;enable-background:new    ;" points="343.018,102.224 277.246,319.124 211.647,377.66 
	142.721,275.936 176.606,372.475 249.114,479.487 314.714,420.95 399.775,140.44 "/>
<g>
	<circle style="fill:#B8D6FD;" cx="67.895" cy="281.072" r="12.59"/>
	<circle style="fill:#B8D6FD;" cx="99.576" cy="343.928" r="17.637"/>
	<circle style="fill:#B8D6FD;" cx="409.223" cy="330.915" r="12.59"/>
	<circle style="fill:#B8D6FD;" cx="431.271" cy="253.701" r="17.653"/>
</g>
<path d="M504.411,132.851h-14.487v-22.383c0-2.231-0.983-4.35-2.685-5.793c-1.703-1.441-3.954-2.055-6.155-1.693l-37.054,6.202
	c-2.121,0.356-3.991,1.593-5.146,3.406l-12.917,20.26h-23.843L280.436,50.915c-0.367-0.248-0.756-0.462-1.161-0.643l-55.659-24.694
	c-2.683-1.192-5.811-0.729-8.033,1.19l-49.276,42.488c-0.011,0.009-0.021,0.018-0.032,0.027l-73.726,63.569H78.937L66.019,112.59
	c-1.747-2.74-5.045-4.068-8.202-3.292l-26.027,6.368c-1.905,0.466-3.557,1.652-4.607,3.31l-8.793,13.877H7.589
	c-4.191,0-7.589,3.397-7.589,7.589s3.398,7.589,7.589,7.589h14.977h52.209h15.04l3.606,10.274H67.892
	c-4.191,0-7.589,3.397-7.589,7.589s3.398,7.589,7.589,7.589h30.856l70.039,199.546c0.004,0.013,0.009,0.025,0.013,0.038l0.675,1.921
	c0.217,0.616,0.511,1.203,0.878,1.744l72.508,107.011c0.024,0.036,0.054,0.068,0.079,0.103c0.099,0.141,0.203,0.277,0.312,0.411
	c0.056,0.069,0.111,0.139,0.169,0.205c0.114,0.132,0.236,0.257,0.359,0.38c0.057,0.057,0.111,0.116,0.17,0.171
	c0.176,0.165,0.359,0.323,0.549,0.471c0.008,0.006,0.015,0.013,0.023,0.02c0.2,0.154,0.41,0.295,0.624,0.429
	c0.06,0.036,0.121,0.069,0.181,0.103c0.16,0.093,0.322,0.183,0.489,0.264c0.072,0.035,0.146,0.067,0.22,0.099
	c0.161,0.073,0.324,0.141,0.49,0.201c0.078,0.028,0.156,0.055,0.235,0.081c0.167,0.055,0.336,0.104,0.507,0.148
	c0.082,0.021,0.163,0.041,0.245,0.06c0.171,0.037,0.344,0.067,0.519,0.093c0.06,0.009,0.118,0.024,0.178,0.032
	c0.024,0.003,0.049,0.002,0.074,0.004c0.28,0.031,0.565,0.053,0.852,0.053c0.002,0,0.004,0,0.005,0s0.002,0,0.003,0
	c0.01,0,0.021-0.001,0.031-0.001c0.177-0.001,0.355-0.006,0.534-0.019c0.021-0.001,0.043-0.006,0.064-0.008
	c0.163-0.014,0.324-0.037,0.485-0.062c0.083-0.012,0.168-0.019,0.25-0.034c0.214-0.039,0.424-0.089,0.632-0.146
	c0.159-0.044,0.313-0.096,0.467-0.149c0.085-0.029,0.171-0.054,0.254-0.086c0.139-0.053,0.272-0.115,0.406-0.176
	c0.082-0.037,0.165-0.072,0.246-0.111c0.126-0.063,0.249-0.133,0.371-0.202c0.085-0.049,0.171-0.095,0.255-0.147
	c0.113-0.07,0.222-0.146,0.33-0.222c0.089-0.062,0.177-0.122,0.263-0.188c0.099-0.076,0.195-0.156,0.29-0.236
	c0.056-0.048,0.115-0.089,0.17-0.139l65.6-58.537c0.014-0.013,0.026-0.028,0.04-0.041c0.225-0.203,0.436-0.421,0.635-0.651
	c0.045-0.052,0.085-0.105,0.129-0.157c0.168-0.204,0.326-0.418,0.473-0.639c0.029-0.045,0.061-0.087,0.09-0.133
	c0.166-0.264,0.317-0.538,0.45-0.824c0.02-0.045,0.038-0.089,0.058-0.134c0.111-0.25,0.208-0.507,0.293-0.771
	c0.012-0.037,0.03-0.072,0.041-0.109l66.624-219.711c0.002-0.007,0.004-0.014,0.006-0.021l9.078-29.938h29.713
	c4.191,0,7.589-3.397,7.589-7.589s-3.398-7.589-7.589-7.589h-25.11l3.115-10.274h24.693h52.208h22.076
	c4.191,0,7.589-3.397,7.589-7.589S508.603,132.851,504.411,132.851z M172.208,84.207l42.493,22.049
	c1.117,0.58,2.311,0.855,3.489,0.855c2.743,0,5.392-1.493,6.743-4.096c1.931-3.721,0.48-8.3-3.241-10.231l-5.723-2.97l10.266-5.462
	c3.7-1.968,5.104-6.564,3.135-10.264c-1.969-3.702-6.565-5.103-10.264-3.136l-19.497,10.373l-15.02-7.793l37.265-32.131
	l50.656,22.475l102.438,68.976H115.791L172.208,84.207z M36.359,132.851l2.009-3.169l17.776-4.35l4.793,7.519H36.359z
	 M255.565,463.586l-4.26-56.92l18.398,16.993c1.265,1.168,2.888,1.871,4.605,1.994l21.997,1.581L255.565,463.586z M235.135,393.979
	l4.317,57.674l-46.628-68.817L235.135,393.979z M374.761,196.879l-111.945,92.349c-3.233,2.667-3.692,7.449-1.025,10.683
	c1.501,1.819,3.671,2.76,5.859,2.76c1.7,0,3.411-0.569,4.825-1.735l25.872-21.343l3.152,13.711c0.807,3.513,3.932,5.89,7.39,5.89
	c0.564,0,1.135-0.064,1.707-0.194c4.085-0.939,6.635-5.012,5.696-9.097l-4.853-21.109l55.366-45.674l-57.562,189.826l-31.194-2.24
	l-30.598-28.264c-0.03-0.028-0.065-0.051-0.096-0.079c-0.152-0.136-0.31-0.262-0.472-0.385c-0.063-0.048-0.121-0.1-0.186-0.145
	c-0.221-0.157-0.45-0.301-0.687-0.433c-0.081-0.046-0.166-0.084-0.249-0.126c-0.169-0.087-0.34-0.169-0.516-0.243
	c-0.097-0.04-0.194-0.079-0.293-0.115c-0.175-0.066-0.352-0.123-0.533-0.176c-0.063-0.018-0.122-0.045-0.185-0.061l-62.446-16.446
	l-66.95-190.752h267.022L374.761,196.879z M386.459,158.304H109.507l-3.606-10.274h283.674L386.459,158.304z M443.965,132.851
	l5.9-9.254l24.881-4.164v13.419h-30.782V132.851z"/>
<path d="M154.974,215.661l32.055,93.432c1.081,3.149,4.025,5.128,7.178,5.128c0.817,0,1.647-0.133,2.464-0.413
	c3.964-1.36,6.075-5.675,4.715-9.64l-5.421-15.802l17.883-25.596c2.401-3.436,1.561-8.167-1.875-10.568
	c-3.435-2.396-8.166-1.56-10.567,1.875l-11.539,16.515l-20.536-59.856c-1.36-3.964-5.674-6.078-9.641-4.715
	C155.725,207.38,153.614,211.697,154.974,215.661z"/>
<path d="M88.072,281.073c0-11.127-9.053-20.179-20.179-20.179s-20.179,9.052-20.179,20.179c0,11.126,9.052,20.178,20.179,20.178
	S88.072,292.199,88.072,281.073z M67.892,286.073c-2.758,0-5.002-2.243-5.002-5.001s2.243-5.002,5.002-5.002
	s5.002,2.244,5.002,5.002S70.65,286.073,67.892,286.073z"/>
<path d="M116.408,325.146c-5.018-4.497-11.486-6.767-18.213-6.403c-6.728,0.368-12.91,3.334-17.408,8.352
	c-4.498,5.018-6.771,11.488-6.403,18.215c0.735,13.422,11.889,23.847,25.174,23.847c0.461,0,0.926-0.013,1.392-0.037
	c13.889-0.761,24.569-12.678,23.809-26.568C124.393,335.825,121.426,329.643,116.408,325.146z M100.123,353.964
	c-5.538,0.316-10.279-3.95-10.582-9.484c-0.147-2.679,0.759-5.257,2.55-7.255c1.792-1.999,4.254-3.18,6.934-3.326
	c0.188-0.011,0.375-0.016,0.562-0.016c2.476,0,4.835,0.901,6.693,2.565c1.998,1.792,3.18,4.254,3.327,6.934
	C109.908,348.913,105.654,353.662,100.123,353.964z"/>
<path d="M409.22,310.732c-5.39,0-10.457,2.099-14.269,5.91c-3.812,3.813-5.91,8.879-5.91,14.27c0,5.389,2.099,10.456,5.91,14.269
	c3.812,3.812,8.879,5.91,14.269,5.91c5.39,0,10.457-2.099,14.269-5.91c3.812-3.813,5.91-8.879,5.91-14.269
	c0-5.39-2.099-10.457-5.91-14.27C419.679,312.831,414.61,310.732,409.22,310.732z M412.758,334.448
	c-0.945,0.945-2.201,1.465-3.537,1.465c-1.336,0-2.592-0.521-3.536-1.465c-0.944-0.944-1.465-2.201-1.465-3.535
	c0-1.336,0.52-2.592,1.465-3.536c0.945-0.944,2.201-1.465,3.536-1.465c1.337,0,2.592,0.521,3.537,1.465
	c0.945,0.944,1.465,2.201,1.465,3.536C414.223,332.247,413.702,333.503,412.758,334.448z"/>
<path d="M413.419,235.85L413.419,235.85c-4.768,4.769-7.394,11.107-7.394,17.849c0,6.743,2.626,13.081,7.393,17.848
	c4.768,4.768,11.107,7.395,17.849,7.395c6.742,0,13.081-2.627,17.848-7.394c4.767-4.768,7.394-11.106,7.394-17.849
	c0-6.742-2.626-13.08-7.394-17.849C439.273,226.011,423.261,226.011,413.419,235.85z M438.383,260.815
	c-1.9,1.9-4.428,2.948-7.115,2.948c-2.687,0-5.215-1.047-7.116-2.949c-1.9-1.9-2.948-4.427-2.948-7.115
	c0-2.687,1.047-5.215,2.948-7.115c3.924-3.925,10.309-3.924,14.232-0.001c1.901,1.901,2.949,4.429,2.949,7.116
	C441.331,256.387,440.284,258.914,438.383,260.815z"/>
<g>
</g>
<g>
</g>
<g>
</g>
<g>
</g>
<g>
</g>
<g>
</g>
<g>
</g>
<g>
</g>
<g>
</g>
<g>
</g>
<g>
</g>
<g>
</g>
<g>
</g>
<g>
</g>
<g>
</g>
</svg>
