<?xml version="1.0" encoding="iso-8859-1"?>
<!-- Generator: Adobe Illustrator 21.0.0, SVG Export Plug-In . SVG Version: 6.00 Build 0)  -->
<svg version="1.1" id="Layer_1" xmlns="http://www.w3.org/2000/svg" xmlns:xlink="http://www.w3.org/1999/xlink" x="0px" y="0px"
	 viewBox="0 0 24 24" enable-background="new 0 0 24 24" xml:space="preserve">
<g>
	<path fill="#303C42" d="M2.7216797,20.0517578c-0.1708984-0.0854492-0.375-0.0654297-0.5253906,0.0512695L0.640625,21.2919922
		C0.2333984,21.5825195,0,22.0219727,0,22.5C0,23.3271484,0.6728516,24,1.5,24S3,23.3271484,3,22.5v-2
		C3,20.3095703,2.8916016,20.1362305,2.7216797,20.0517578z"/>
	<path fill="#BBDEFB" d="M2,22.5C2,22.7758789,1.7753906,23,1.5,23S1,22.7758789,1,22.5
		c0-0.2070313,0.140625-0.3369141,0.2246094-0.3959961c0.0058594-0.0039063,0.0117188-0.0078125,0.0166016-0.012207L2,21.5117188
		V22.5z"/>
	<path fill="#303C42" d="M12.7216797,20.0517578c-0.1708984-0.0854492-0.375-0.0654297-0.5253906,0.0512695l-1.5556641,1.1889648
		C10.2333984,21.5825195,10,22.0219727,10,22.5c0,0.8271484,0.6728516,1.5,1.5,1.5s1.5-0.6728516,1.5-1.5v-2
		C13,20.3095703,12.8916016,20.1362305,12.7216797,20.0517578z"/>
	<path fill="#BBDEFB" d="M12,22.5c0,0.2758789-0.2246094,0.5-0.5,0.5S11,22.7758789,11,22.5
		c0-0.2070313,0.140625-0.3369141,0.2246094-0.3959961c0.0058594-0.0039063,0.0117188-0.0078125,0.0166016-0.012207L12,21.5117188
		V22.5z"/>
	<path fill="#64B5F6" d="M3,10c0-1.6542969,1.3457031-3,3-3c0.2763672,0,0.5-0.2236328,0.5-0.5S6.2763672,6,6,6
		C5.8554688,6,5.7185059,6.0276489,5.5778809,6.0426636C6.017334,3.1713257,8.5119629,1,11.5,1
		c2.3226929,0,4.428772,1.3778687,5.40979,3.4609985c-0.2414551,0.1113892-0.4762573,0.2387085-0.6993408,0.3890991
		c-0.2290039,0.1542969-0.2895508,0.4648438-0.1352539,0.6938477c0.1547852,0.2294922,0.465332,0.2895508,0.6938477,0.1352539
		C17.4287109,5.2348633,18.2001953,5,19,5c2.2055664,0,4,1.7944336,4,4s-1.7944336,4-4,4h-1.0582886
		c-0.2872314-0.2805786-0.6242676-0.5079956-0.9937744-0.6772461C16.6082764,9.3133545,14.0606689,7,11,7
		c-2.2233887,0-4.2402954,1.2418213-5.2780762,3.1849976C5.3250732,10.0725098,4.9162598,10,4.5,10
		c-0.5202637,0-1.0123901,0.1063232-1.4776611,0.2694702C3.012146,10.1785278,3,10.0869751,3,10z"/>
	<path fill="#64B5F6" d="M15.5,18h-11C2.5703125,18,1,16.4296875,1,14.5S2.5703125,11,4.5,11
		c0.8041992,0,1.5600586,0.2651367,2.1865234,0.7666016c0.2172852,0.1743164,0.53125,0.1381836,0.7026367-0.0776367
		c0.1728516-0.215332,0.1381836-0.5302734-0.0776367-0.7026367c-0.2055664-0.1647339-0.4257813-0.3083496-0.6556396-0.4335938
		C7.5365601,8.9916992,9.1861572,8,11,8c2.4119263,0,4.4276123,1.7300415,4.8804321,4.0384521
		C15.7537842,12.0245361,15.630249,12,15.5,12c-0.2763672,0-0.5,0.2236328-0.5,0.5s0.2236328,0.5,0.5,0.5
		c1.378418,0,2.5,1.121582,2.5,2.5S16.878418,18,15.5,18z"/>
	<path opacity="0.1" d="M16.2980957,13.1426392C17.0157471,13.6044922,17.5,14.4283447,17.5,15.375
		C17.5,16.8223267,16.378418,18,15,18h0.5c1.378418,0,2.5-1.121582,2.5-2.5
		C18,14.4022217,17.2839966,13.4777832,16.2980957,13.1426392z"/>
	<path opacity="0.2" fill="#FFFFFF" d="M1.5,14.5c0-1.852478,1.4514771-3.3583374,3.2744751-3.4771729
		C4.6828003,11.0157471,4.5930786,11,4.5,11C2.5703125,11,1,12.5703125,1,14.5S2.5703125,18,4.5,18H5
		C3.0703125,18,1.5,16.4296875,1.5,14.5z"/>
	<path opacity="0.1" d="M19,5c-0.1187744,0-0.2352295,0.015686-0.352478,0.0259399
		C20.7317505,5.1609497,22.3911743,6.8822021,22.3911743,9c0,2.1222534-1.6663208,3.8469238-3.7567749,3.9754028
		C18.6386108,12.9840088,18.6447754,12.991333,18.6489258,13H19c2.2055664,0,4-1.7944336,4-4S21.2055664,5,19,5z"/>
	<path opacity="0.2" fill="#FFFFFF" d="M11.5,8.5c1.2614136,0,2.4071655,0.480896,3.2849121,1.2625732
		C13.8717041,8.6832886,12.5146484,8,11,8c-1.8138428,0-3.4634399,0.9916992-4.3441162,2.5527344
		c0.2023926,0.1102905,0.3933105,0.2411499,0.5773315,0.3818359C8.1298218,9.444519,9.7341919,8.5,11.5,8.5z"/>
	<path fill="#303C42" d="M19,4c-0.3878784,0-0.7671509,0.057373-1.1385498,0.144104C16.7401733,1.6542358,14.2497559,0,11.5,0
		C7.8795776,0,4.8879395,2.7369995,4.5489502,6.2822876C3.0604248,6.8654175,2,8.307373,2,10
		c0,0.2305298,0.0336304,0.4686279,0.0835571,0.7163696C0.8344727,11.5169067,0,12.9093628,0,14.5C0,16.9814453,2.0185547,19,4.5,19
		h11c1.9296875,0,3.5-1.5703125,3.5-3.5c0-0.5388184-0.1325684-1.0435791-0.3510742-1.5H19c2.7568359,0,5-2.2431641,5-5
		S21.7568359,4,19,4z"/>
	<path fill="#64B5F6" d="M15.5,18h-11C2.5703125,18,1,16.4296875,1,14.5S2.5703125,11,4.5,11
		c0.8041992,0,1.5600586,0.2651367,2.1865234,0.7666016c0.2172852,0.1743164,0.53125,0.1381836,0.7026367-0.0776367
		c0.1728516-0.215332,0.1381836-0.5302734-0.0776367-0.7026367c-0.2055664-0.1647339-0.4257813-0.3083496-0.6556396-0.4335938
		C7.5365601,8.9916992,9.1861572,8,11,8c2.4119263,0,4.4276123,1.7300415,4.8804321,4.0384521
		C15.7537842,12.0245361,15.630249,12,15.5,12c-0.2763672,0-0.5,0.2236328-0.5,0.5s0.2236328,0.5,0.5,0.5
		c1.378418,0,2.5,1.121582,2.5,2.5S16.878418,18,15.5,18z"/>
	<path opacity="0.2" fill="#FFFFFF" d="M6.2015381,6.0438232C6.8408813,3.4282227,9.190918,1.5,12,1.5
		c1.5081177,0,2.9187622,0.5876465,3.9955444,1.5653076C14.8798828,1.7856445,13.2523193,1,11.5,1
		C8.5119629,1,6.017334,3.1713257,5.5778809,6.0426636C5.7185059,6.0276489,5.8554688,6,6,6
		C6.0720825,6,6.1397095,6.0164795,6.2015381,6.0438232z"/>
	<path fill="#64B5F6" d="M3,10c0-1.6542969,1.3457031-3,3-3c0.2763672,0,0.5-0.2236328,0.5-0.5S6.2763672,6,6,6
		C5.8554688,6,5.7185059,6.0276489,5.5778809,6.0426636C6.017334,3.1713257,8.5119629,1,11.5,1
		c2.3226929,0,4.428772,1.3778687,5.40979,3.4609985c-0.2414551,0.1113892-0.4762573,0.2387085-0.6993408,0.3890991
		c-0.2290039,0.1542969-0.2895508,0.4648438-0.1352539,0.6938477c0.1547852,0.2294922,0.465332,0.2895508,0.6938477,0.1352539
		C17.4287109,5.2348633,18.2001953,5,19,5c2.2055664,0,4,1.7944336,4,4s-1.7944336,4-4,4h-1.0582886
		c-0.2872314-0.2805786-0.6242676-0.5079956-0.9937744-0.6772461C16.6082764,9.3133545,14.0606689,7,11,7
		c-2.2233887,0-4.2402954,1.2418213-5.2780762,3.1849976C5.3250732,10.0725098,4.9162598,10,4.5,10
		c-0.5202637,0-1.0123901,0.1063232-1.4776611,0.2694702C3.012146,10.1785278,3,10.0869751,3,10z"/>
	<path fill="#303C42" d="M21.7216797,19.0517578c-0.171875-0.0849609-0.375-0.0654297-0.5253906,0.0512695l-1.5546875,1.1894531
		C19.2333984,20.5820313,19,21.0214844,19,21.5c0,0.8271484,0.6728516,1.5,1.5,1.5s1.5-0.6728516,1.5-1.5v-2
		C22,19.3095703,21.8916016,19.1362305,21.7216797,19.0517578z"/>
	<path opacity="0.1" d="M16.9381714,13.461731C16.9765625,13.6355591,17,13.8148193,17,14c0,1.378418-1.121582,2.5-2.5,2.5h-11
		c-0.8842773,0-1.6837158-0.3405151-2.3005371-0.8834839C1.6685181,16.9971313,2.9629517,18,4.5,18h11
		c1.378418,0,2.5-1.121582,2.5-2.5C18,14.6577759,17.5783691,13.914978,16.9381714,13.461731z"/>
	<path fill="#BBDEFB" d="M21,21.5c0,0.2758789-0.2246094,0.5-0.5,0.5S20,21.7758789,20,21.5
		c0-0.2070313,0.140625-0.3364258,0.2246094-0.3950195c0.0058594-0.0043945,0.0107422-0.0083008,0.0166016-0.0126953L21,20.512207
		V21.5z"/>
	<path fill="#303C42" d="M4.5,24c-0.0644531,0-0.1289063-0.012207-0.1914063-0.0380859
		c-0.2207031-0.0913086-0.3457031-0.3256836-0.2988281-0.5600586l1.5-7.5
		c0.0302734-0.152832,0.1308594-0.2827148,0.2705078-0.3510742c0.1396484-0.0678711,0.3037109-0.0678711,0.4433594,0.0019531
		l1.3583984,0.6791992l0.4208984-3.7871094c0.0166016-0.1499023,0.1005859-0.284668,0.2275391-0.3662109
		c0.1269531-0.0810547,0.2832031-0.1015625,0.4277344-0.0527344l3,1c0.2578125,0.0854492,0.3994141,0.3613281,0.3193359,0.6210938
		l-2,6.5c-0.0429688,0.140625-0.1455078,0.2548828-0.28125,0.3125c-0.1347656,0.059082-0.2890625,0.0527344-0.4199219-0.012207
		l-1.6054688-0.8027344l-2.7548828,4.1328125C4.8212891,23.9199219,4.6630859,24,4.5,24z"/>
	<path fill="#303C42" d="M15.5,22c-0.8271484,0-1.5-0.6728516-1.5-1.5c0-0.4780273,0.2333984-0.9174805,0.640625-1.2080078
		l1.5556641-1.1889648c0.1513672-0.1162109,0.3544922-0.1357422,0.5253906-0.0512695C16.8916016,18.1362305,17,18.3095703,17,18.5v2
		C17,21.3271484,16.3271484,22,15.5,22z"/>
	<path fill="#BBDEFB" d="M16,19.5117188l-0.7587891,0.5800781c-0.0048828,0.0043945-0.0107422,0.0083008-0.0166016,0.012207
		C15.140625,20.1630859,15,20.2929688,15,20.5c0,0.2758789,0.2246094,0.5,0.5,0.5s0.5-0.2241211,0.5-0.5V19.5117188z"/>
	<path fill="#303C42" d="M14.9374886,19.6948242h0.0097771H14.9374886z"/>
	<path opacity="0.1" d="M20.2883301,5.2317505C20.7350464,5.8772583,21,6.6573486,21,7.5c0,2.2055664-1.7944336,4-4,4h-0.2233887
		c0.0696411,0.2695313,0.1393433,0.5394897,0.1713257,0.8227539C17.3174438,12.4920044,17.65448,12.7194214,17.9417114,13H19
		c2.2055664,0,4-1.7944336,4-4C23,7.2476807,21.8600464,5.7713013,20.2883301,5.2317505z"/>
	<path fill="#FFCA28" d="M6.3623047,16.7397461l-0.8759766,4.3798828l1.5981445-2.3969727
		c0.1401367-0.2094727,0.4140625-0.2832031,0.6396484-0.1699219l1.472168,0.7363281l1.6826172-5.4692383l-1.949707-0.6499023
		l-0.4316406,3.8852539c-0.0180664,0.1625977-0.1147461,0.3061523-0.2583008,0.3842773
		c-0.1435547,0.0771484-0.315918,0.0810547-0.4624023,0.0078125L6.3623047,16.7397461z"/>
	<linearGradient id="SVGID_1_" gradientUnits="userSpaceOnUse" x1="1.8062189" y1="9.5339966" x2="23.1038246" y2="19.4652328">
		<stop  offset="0" style="stop-color:#FFFFFF;stop-opacity:0.2"/>
		<stop  offset="1" style="stop-color:#FFFFFF;stop-opacity:0"/>
	</linearGradient>
	<path fill="url(#SVGID_1_)" d="M12.7216797,20.0517578c-0.1708984-0.0854492-0.375-0.0654297-0.5253906,0.0512695
		l-1.5556641,1.1889648C10.2333984,21.5825195,10,22.0219727,10,22.5c0,0.8271484,0.6728516,1.5,1.5,1.5s1.5-0.6728516,1.5-1.5v-2
		C13,20.3095703,12.8916016,20.1362305,12.7216797,20.0517578z M2.7216797,20.0517578
		c-0.1708984-0.0854492-0.375-0.0654297-0.5253906,0.0512695L0.640625,21.2919922C0.2333984,21.5825195,0,22.0219727,0,22.5
		C0,23.3271484,0.6728516,24,1.5,24S3,23.3271484,3,22.5v-2C3,20.3095703,2.8916016,20.1362305,2.7216797,20.0517578z M19,4
		c-0.3878784,0-0.7671509,0.057373-1.1385498,0.144104C16.7401733,1.6542358,14.2497559,0,11.5,0
		C7.8795776,0,4.8879395,2.7369995,4.5489502,6.2822876C3.0604248,6.8654175,2,8.307373,2,10
		c0,0.2305298,0.0336304,0.4686279,0.0835571,0.7163696C0.8344727,11.5169067,0,12.9093628,0,14.5C0,16.9814453,2.0185547,19,4.5,19
		h0.3901367l-0.8803711,4.4018555c-0.046875,0.234375,0.078125,0.46875,0.2988281,0.5600586
		C4.3710938,23.987793,4.4355469,24,4.5,24c0.1630859,0,0.3212891-0.0800781,0.4160156-0.2226563l2.7548828-4.1328125
		l1.6054688,0.8027344c0.1308594,0.0649414,0.2851563,0.0712891,0.4199219,0.012207
		c0.1357422-0.0576172,0.2382813-0.171875,0.28125-0.3125L10.3304443,19h4.6921997l-0.382019,0.2919922
		C14.2333984,19.5825195,14,20.0219727,14,20.5c0,0.8271484,0.6728516,1.5,1.5,1.5s1.5-0.6728516,1.5-1.5v-1.8510742
		c1.1781616-0.5640259,2-1.7580566,2-3.1489258c0-0.5388184-0.1325684-1.0435791-0.3510742-1.5H19c2.7568359,0,5-2.2431641,5-5
		S21.7568359,4,19,4z M21.7216797,19.0517578c-0.171875-0.0849609-0.375-0.0654297-0.5253906,0.0512695l-1.5546875,1.1894531
		C19.2333984,20.5820313,19,21.0214844,19,21.5c0,0.8271484,0.6728516,1.5,1.5,1.5s1.5-0.6728516,1.5-1.5v-2
		C22,19.3095703,21.8916016,19.1362305,21.7216797,19.0517578z"/>
</g>
<g>
</g>
<g>
</g>
<g>
</g>
<g>
</g>
<g>
</g>
<g>
</g>
<g>
</g>
<g>
</g>
<g>
</g>
<g>
</g>
<g>
</g>
<g>
</g>
<g>
</g>
<g>
</g>
<g>
</g>
</svg>
