<?xml version="1.0" encoding="utf-8"?>
<!-- Generator: Adobe Illustrator 25.4.1, SVG Export Plug-In . SVG Version: 6.00 Build 0)  -->
<svg version="1.1" id="fille_outline" xmlns="http://www.w3.org/2000/svg" xmlns:xlink="http://www.w3.org/1999/xlink" x="0px"
	 y="0px" viewBox="0 0 512 512" enable-background="new 0 0 512 512" xml:space="preserve">
<path fill="#C78A4E" d="M215.885,381.729l235.334,47.092l12.558-62.756l-235.334-47.092c-17.33-3.468-34.189,7.769-37.657,25.099
	l0,0C187.319,361.402,198.556,378.262,215.885,381.729z"/>
<circle fill="#5D4125" cx="457.499" cy="397.444" r="32"/>
<path fill="#C78A4E" d="M292.598,348.489L67.313,431.235l-22.065-60.076l225.285-82.745c16.589-6.093,34.977,2.416,41.071,19.005
	l0,0C317.696,324.008,309.187,342.396,292.598,348.489z"/>
<circle fill="#5D4125" cx="56.28" cy="401.197" r="32"/>
<path fill="#996A3C" d="M350.696,275.909L216.067,474.593l-52.982-35.901l134.629-198.683c9.914-14.631,29.811-18.454,44.442-8.541
	l0,0C356.786,241.382,360.61,261.279,350.696,275.909z"/>
<circle fill="#5D4125" cx="189.576" cy="456.642" r="32"/>
<path fill="#EDD16F" d="M336,216c14.15-56.174-20.717-121.746-80-192c-5.377,80.078-25.438,141.171-72,168
	c-35.81,2.123-63.13-36.989-88-88v100c0,86.156,69.844,156,156,156h0c86.156,0,156-69.844,156-156v-76
	C395.573,170.297,376.793,205.479,336,216z"/>
<path fill="#E0696B" d="M301.778,281.143c9.434-30.762-13.811-66.671-53.333-105.143c-3.585,43.852-16.959,77.308-48,92
	c-23.873,1.162-42.087-20.256-58.667-48.19v54.762c0,47.181,46.562,85.428,104,85.428h0c57.438,0,120-38.248,120-85.428v-41.619
	C357.493,256.115,328.973,275.381,301.778,281.143z"/>
<path fill="#9C494A" d="M288,328c0,17.673-14.327,32-32,32s-32-14.327-32-32s32-64,32-64S288,310.327,288,328z"/>
<path d="M490.783,375.259c-5.926-8.891-14.959-14.941-25.437-17.038c-0.048-0.01-0.095-0.016-0.143-0.025l-114.907-23
	C390.164,305.25,416,257.587,416,204v-76c0-3.978-2.923-7.352-6.86-7.918c-3.944-0.566-7.693,1.847-8.815,5.663
	c-12.601,42.887-29.137,67.141-54.011,78.242c2.911-24.868-2.27-52.366-15.47-81.965c-13.831-31.014-36.312-64.765-68.729-103.181
	c-2.104-2.492-5.508-3.458-8.607-2.442c-3.099,1.016-5.271,3.812-5.489,7.065c-5.673,84.485-27.379,137.059-66.337,160.616
	c-0.149,0.002-0.3,0.002-0.449,0.002c-25.762,0-49.943-25.958-78.041-83.588c-1.633-3.348-5.36-5.129-8.989-4.289
	C90.571,97.042,88,100.275,88,104v100c0,48.742,21.382,92.578,55.25,122.643L42.59,363.615c-0.034,0.012-0.068,0.022-0.102,0.034
	c-10.028,3.684-18.022,11.052-22.51,20.749c-4.487,9.697-4.93,20.561-1.246,30.589c3.684,10.029,11.053,18.024,20.749,22.511
	c5.35,2.476,11.053,3.72,16.776,3.72c4.651,0,9.316-0.822,13.812-2.474c0.066-0.024,0.13-0.053,0.196-0.078L180.998,398
	l-24.465,36.105c-0.023,0.033-0.048,0.065-0.07,0.098c-5.993,8.845-8.184,19.495-6.167,29.987
	c2.017,10.492,7.998,19.571,16.844,25.564c6.7,4.541,14.436,6.898,22.354,6.898c2.534,0,5.089-0.242,7.632-0.73
	c10.488-2.016,19.563-7.993,25.558-16.832c0.003-0.005,0.007-0.009,0.011-0.014l52.408-77.34l174.476,34.912
	c0.025,0.005,0.049,0.012,0.073,0.017c2.639,0.528,5.268,0.782,7.861,0.782c18.666,0,35.41-13.167,39.21-32.155
	C498.818,394.816,496.709,384.15,490.783,375.259z M227.397,443.613c-2.792-8.157-8.119-15.163-15.382-20.084
	c-7.263-4.921-15.741-7.272-24.35-6.843l34.801-51.356c9.583,1.75,19.453,2.67,29.534,2.67c9.647,0,19.1-0.844,28.295-2.45
	L227.397,443.613z M149.777,274.571v-28.384c12.715,16.41,28.656,29.859,48.827,29.858c0.313,0,0.628-0.003,0.944-0.01
	c1.867-0.039,3.7-0.491,5.376-1.314c26.973-13.248,43.272-39.918,49.553-81.239c33.385,35.229,46.379,63.198,39.677,85.23
	c-0.635,2.087-0.453,4.378,0.608,6.285c1.756,3.157,5.288,4.689,8.673,3.972c18.571-3.935,39.664-14.519,54.342-29.491v15.093
	c0,19.416-12.411,38.517-34.947,53.784c-9.014,6.106-19.218,11.177-29.939,15.052C294.883,338.662,296,333.462,296,328
	c0-19.058-27.439-59.877-33.294-68.368c-1.034-1.5-2.491-2.692-4.227-3.244c-3.481-1.107-7.103,0.23-9.061,3.065
	C243.837,267.532,216,308.805,216,328c0,7.669,2.176,14.836,5.934,20.927c-7.813-1.619-15.4-3.862-22.712-6.663
	C169.757,329.03,149.777,303.649,149.777,274.571z M258.101,351.359c-0.09,0.009-0.18,0.018-0.27,0.026
	c-8.686,0.837-17.304-3.099-22.028-10.436C233.397,337.212,232,332.767,232,328c0-8.738,12.485-31.542,24-49.534
	c11.515,17.992,24,40.796,24,49.534c0,0.436-0.012,0.87-0.035,1.301C279.336,341.018,269.779,350.209,258.101,351.359z M104,204
	v-67.637c8.867,15.397,17.354,27.437,25.973,36.938c17.331,19.103,35.159,27.825,54.501,26.685c1.239-0.073,2.444-0.435,3.521-1.054
	c41.662-24.006,66.058-74.689,74.315-154.648c55.447,69.452,77.054,125.015,66.003,169.479c-0.542,2.182-0.312,4.526,0.875,6.436
	c1.896,3.05,5.482,4.407,8.81,3.548c30.905-7.971,49.658-28.979,62.002-52.79V204c0,32.558-10.576,62.688-28.461,87.152
	c1.477-5.439,2.238-10.982,2.238-16.581v-41.619c0-3.891-2.799-7.217-6.633-7.882c-3.829-0.661-7.59,1.524-8.9,5.188
	c-5.764,16.116-24.676,31.906-46.402,39.711c1.563-28.009-17.163-60.128-57.817-99.702c-2.22-2.161-5.489-2.844-8.388-1.759
	c-2.901,1.087-4.913,3.752-5.166,6.839c-3.336,40.814-15.162,67.52-36.064,81.276c-4.089,2.691-9.144,3.626-13.849,2.274
	c-13.482-3.873-26.768-17.675-41.9-43.171c-2.015-3.393-6.236-4.857-9.987-3.29c-3.037,1.268-4.893,4.383-4.893,7.675l0,54.46
	c0,7.787,1.152,15.354,3.314,22.59C116.414,271.704,104,239.277,104,204z M46.201,422.978c-5.818-2.692-10.239-7.489-12.449-13.506
	c-2.211-6.018-1.945-12.536,0.747-18.354s7.489-10.239,13.506-12.45c2.721-0.999,5.508-1.473,8.25-1.473
	c9.781,0,18.99,6.025,22.554,15.727c2.21,6.018,1.944,12.536-0.747,18.354c-2.692,5.818-7.489,10.239-13.507,12.449
	C58.534,425.935,52.018,425.668,46.201,422.978z M94.597,412.686c2.493-8.251,2.256-17.046-0.769-25.28c0,0,0,0,0,0
	c-3.103-8.445-8.772-15.217-15.803-19.762l79.938-29.361c14.426,10.133,30.551,18,47.856,23.086l-9.445,13.938L94.597,412.686z
	 M194.105,480.211c-6.295,1.21-12.686-0.104-17.992-3.701c-5.307-3.596-8.896-9.043-10.105-15.339
	c-1.21-6.295,0.104-12.685,3.7-17.992c3.596-5.307,9.044-8.896,15.339-10.106c1.526-0.293,3.059-0.438,4.579-0.438
	c4.751,0,9.393,1.415,13.412,4.139c0.001,0,0.001,0,0.001,0c5.307,3.596,8.896,9.043,10.105,15.339
	c1.21,6.295-0.104,12.685-3.7,17.992C205.849,475.412,200.401,479.001,194.105,480.211z M303.604,359.674
	c9.562-3.178,18.736-7.214,27.431-12.016l99.792,19.974c-6.437,5.735-10.829,13.36-12.55,21.963
	c-1.765,8.822-0.466,17.558,3.156,25.105l-136.594-27.332L303.604,359.674z M481.032,402.153
	c-2.596,12.977-15.261,21.42-28.243,18.824c-12.976-2.597-21.42-15.266-18.823-28.242c1.258-6.286,4.888-11.706,10.223-15.262
	c3.988-2.659,8.573-4.037,13.261-4.037c1.581,0,3.173,0.157,4.759,0.474c6.286,1.258,11.706,4.888,15.262,10.223
	S482.29,395.867,481.032,402.153z"/>
</svg>
